<svg id="Capa_1" enable-background="new 0 0 512 512" height="512" viewBox="0 0 512 512" width="512" xmlns="http://www.w3.org/2000/svg"><g><path d="m90.791 402.275 8.159-8.159c16.907 12.835 35.156 23.18 54.416 30.898-17.493 9.971-29.032 28.756-29.032 50.193v2.724c0 18.786 15.284 34.069 34.07 34.069h165.298c18.786 0 34.07-15.283 34.07-34.069v-2.724c0-21.468-11.575-40.279-29.113-50.239 29.277-11.702 56.155-29.326 79.122-52.287 44.552-44.538 69.088-103.767 69.088-166.777 0-52.054-16.445-101.033-47.61-142.097l8.17-8.17c12.71-12.711 12.71-33.394 0-46.104-12.71-12.71-33.393-12.71-46.104 0l-40.502 40.502c-31.799-22.427-69.975-34.771-109.765-34.771-22.46 0-44.476 3.884-65.436 11.544-3.89 1.422-5.892 5.729-4.47 9.619 1.421 3.891 5.729 5.891 9.619 4.47 19.305-7.056 39.589-10.633 60.287-10.633 38.715 0 75.774 12.681 106.004 35.6 9.259 7.024 17.425 14.612 25.101 23.226-4.412 7.301-4.814 10.044-8.291 12.259-4.4 2.818-7.555.435-15.29 4.831-8.596 4.888-10.031 11.109-16.61 22.763-1.928 3.593-5.801 5.727-9.875 5.438-1.628.2-21.937-4.321-37.59 12.733-9.053 9.884-9.764 19.021-12.62 32.193-1.844 8.562-5.563 10.547-20.097 30.728-6.153 8.223-4.345 19.807 3.906 25.794l13.471 9.767c4.279 3.096 9.866 4.309 15.348 2.89l18.85-4.903c4.424-1.156 9.394.021 12.887 3.573 11.449 11.63 25.205 7.68 32.483 8.575 3.974.49 5.315 2.068 15.397 7.168 1.755.932.59.297 32.423 24.707-9.812 18.671-22.918 35.415-38.757 49.517-3.081 2.743-3.381 7.482-.614 10.589 2.715 3.052 7.474 3.387 10.589.614 39.158-34.866 63.917-85.722 63.917-142.424 0-41.061-12.827-78.719-34.767-109.76 1.899-1.899 19.189-19.189 21.632-21.632 28.369 38.099 43.314 83.344 43.314 131.392 0 59.003-22.975 114.464-64.692 156.168-41.744 41.732-97.318 64.651-156.119 64.651-46.864 0-92.448-14.298-131.403-43.312 1.903-1.902 19.548-19.548 21.633-21.633 32.251 22.785 70.11 34.765 109.77 34.765 38.614 0 74.794-11.625 104.749-31.364 3.454-2.276 4.418-6.925 2.136-10.39-2.27-3.443-6.917-4.425-10.39-2.136-24.537 16.168-53.49 26.005-81.668 28.259-.042-.103-2.739-6.649-2.697-6.547-1.736-4.212-.274-9 3.322-11.567 13.009-9.227 9.96-23.642 10.382-25.961 0-6.275-2.358-12.273-6.676-16.878l-8.969-9.565c-3.092-3.297-3.458-8.377-.936-12.073 1.86-2.832 3.197-4.356 4.538-7.315 5.927-13.084-.656-28.92-14.82-33.573-27.572-9.118-26.783-8.449-27.558-9.783-19.425-33.389-18.62-32.985-22.361-35.878-7.948-6.15-20.177-4.587-25.943 4.761l-4.27 6.921c-1.367 2.212-4.743 1.475-5.076-1.093-.129-.994-.328.807 9.318-36.444.565-2.181 2.064-1.747 20.23-11.436 17.923-9.187 8.893-36.937-12.873-40.663-10.294-2.083-14.798-1.594-20.862-5.278l-27.339-16.593c-11.056-6.716-11.154-17.752-13.294-22.982 13.101-14.677 28.45-26.969 45.672-36.57 3.618-2.017 4.916-6.585 2.899-10.203s-6.586-4.916-10.203-2.899c-19.958 11.126-37.594 25.581-52.42 42.963-.032.038-.06.079-.091.117-29.304 34.407-45.441 78.27-45.441 123.531 0 40.813 12.897 78.667 34.822 109.713l-40.552 40.555c-12.739 12.739-12.743 33.362 0 46.104 12.738 12.741 33.362 12.744 46.104.001zm272.04-343.035 39.1-39.1c6.863-6.862 18.028-6.862 24.891 0 6.862 6.863 6.862 18.028 0 24.891l-39.104 39.104c-.226-.272-.446-.548-.673-.819-7.073-8.417-15.35-16.695-24.124-23.999-.032-.027-.06-.053-.09-.077zm40.28 214.486c-36.837-27.779-22.94-19.235-42.693-29.774-13.924-7.422-25.216 1.072-33.476-7.317-6.434-6.536-16.041-9.814-25.617-7.962-1.51.291-.68.137-20.578 5.295-.968.25-1.983.059-2.782-.519-13.546-10.103-14.803-9.826-14.827-12.409-.021-1.991.124-.903 16.187-22.732 11.67-15.506 5.593-29.434 16.238-41.055 10.266-11.186 23.62-7.728 25.462-7.909 9.963.709 19.447-4.515 24.165-13.309l6.816-12.703c1.671-3.115 4.775-5.144 8.304-5.426 8.41-.675 15.978-5.515 20.085-12.855l1.946-3.459c21.799 29.468 34.348 66.023 34.348 104.312 0 23.524-4.614 46.534-13.578 67.822zm-60.339 201.481v2.724c0 10.514-8.554 19.069-19.069 19.069h-165.298c-10.515 0-19.069-8.554-19.069-19.069v-2.724c0-21.579 15.787-39.527 36.973-42.376 20.176 5.714 41.996 8.893 64.749 8.893 21.94 0 43.787-3.033 64.581-8.918 21.267 2.78 37.133 20.769 37.133 42.401zm-244.225-371.975c5.962 18.719 16.756 20.619 44.302 38.13 8.272 5.025 14.92 5.316 26.119 7.242 5.032.86 8.895 4.642 9.978 9.52.196.872-.064 1.886-.808 2.577-.52.484.247-.052-19.468 10.137-3.366 1.734-6.063 4.488-7.734 7.809-1.469 2.922-.703 1.661-10.563 38.898-5.15 19.826 21.725 30.875 32.286 13.792l4.274-6.927c1.093-1.772 3.665-1.75 4.712.062l17.854 30.711c2.185 3.767 5.669 6.592 9.812 7.954l26.038 8.547c2.916.958 5.155 3.175 6.143 6.083 2.111 6.211-2.564 10.067-3.572 12.099-4.926 7.22-5.605 16.147-2.274 23.745 2.326 5.306 4.931 7.187 13.627 16.607 3.78 4.031 2.274 8.511 2.618 12.465 0 3.081-1.478 6.048-4.077 7.892-7.405 5.283-11.466 14.398-10.093 23.715.568 3.851 1.856 6.304 2.195 7.24-97.45-.67-174.497-80.22-174.497-175.628 0-36.959 11.676-72.905 33.128-102.67zm-43.254 263.545 39.096-39.096c7.515 9.042 15.848 17.375 24.891 24.89l-39.096 39.096c-6.878 6.878-18.012 6.879-24.891 0-6.878-6.877-6.879-18.011 0-24.89z"/></g></svg>