<?xml version="1.0" encoding="utf-8"?>
<!-- Generator: Adobe Illustrator 16.0.0, SVG Export Plug-In . SVG Version: 6.00 Build 0)  -->
<!DOCTYPE svg PUBLIC "-//W3C//DTD SVG 1.1//EN" "http://www.w3.org/Graphics/SVG/1.1/DTD/svg11.dtd">
<svg version="1.1" id="Capa_1" xmlns="http://www.w3.org/2000/svg" xmlns:xlink="http://www.w3.org/1999/xlink" x="0px" y="0px"
	 width="512px" height="512px" viewBox="0 0 512 512" enable-background="new 0 0 512 512" xml:space="preserve">
<g>
	<path fill="#FFFFFF" d="M90.791,402.275l8.159-8.159c16.906,12.835,35.155,23.18,54.416,30.897
		c-17.493,9.972-29.032,28.756-29.032,50.193v2.724c0,18.786,15.284,34.069,34.069,34.069h165.298
		c18.786,0,34.07-15.283,34.07-34.069v-2.724c0-21.468-11.575-40.279-29.113-50.239c29.277-11.702,56.155-29.325,79.122-52.286
		c44.552-44.539,69.088-103.768,69.088-166.777c0-52.054-16.444-101.033-47.609-142.097l8.17-8.17
		c12.71-12.711,12.71-33.394,0-46.104s-33.394-12.71-46.104,0l-40.502,40.502c-31.799-22.427-69.975-34.771-109.765-34.771
		c-22.46,0-44.476,3.884-65.436,11.544c-3.891,1.422-5.893,5.729-4.471,9.619c1.422,3.891,5.729,5.891,9.619,4.47
		c19.306-7.056,39.589-10.633,60.287-10.633c38.715,0,75.774,12.681,106.004,35.6c9.259,7.024,17.425,14.612,25.101,23.226
		c-4.411,7.301-4.813,10.044-8.291,12.259c-4.399,2.818-7.555,0.435-15.289,4.831c-8.597,4.888-10.031,11.109-16.61,22.763
		c-1.928,3.593-5.801,5.727-9.875,5.438c-1.628,0.2-21.937-4.321-37.59,12.733c-9.053,9.884-9.764,19.021-12.62,32.193
		c-1.844,8.562-5.563,10.547-20.097,30.728c-6.153,8.223-4.346,19.807,3.906,25.794l13.471,9.767
		c4.278,3.096,9.866,4.309,15.348,2.89l18.851-4.903c4.424-1.156,9.394,0.021,12.887,3.573c11.448,11.63,25.205,7.68,32.482,8.575
		c3.975,0.49,5.315,2.068,15.397,7.167c1.755,0.933,0.59,0.298,32.423,24.707c-9.813,18.672-22.918,35.416-38.757,49.518
		c-3.081,2.743-3.381,7.482-0.614,10.589c2.715,3.052,7.474,3.388,10.589,0.614c39.158-34.866,63.917-85.723,63.917-142.424
		c0-41.061-12.827-78.719-34.767-109.76c1.898-1.899,19.188-19.189,21.632-21.632c28.369,38.099,43.313,83.344,43.313,131.392
		c0,59.003-22.975,114.464-64.691,156.168c-41.744,41.731-97.318,64.65-156.119,64.65c-46.864,0-92.448-14.298-131.403-43.312
		c1.903-1.902,19.549-19.548,21.634-21.634c32.251,22.785,70.109,34.766,109.77,34.766c38.614,0,74.794-11.625,104.749-31.363
		c3.454-2.277,4.418-6.926,2.136-10.391c-2.27-3.443-6.917-4.425-10.39-2.137c-24.537,16.168-53.49,26.006-81.668,28.26
		c-0.042-0.104-2.739-6.648-2.697-6.547c-1.735-4.213-0.273-9,3.322-11.567c13.009-9.227,9.96-23.642,10.382-25.961
		c0-6.274-2.358-12.272-6.676-16.878l-8.969-9.564c-3.093-3.297-3.458-8.377-0.937-12.073c1.86-2.832,3.197-4.356,4.538-7.315
		c5.927-13.084-0.656-28.92-14.82-33.572c-27.571-9.119-26.782-8.45-27.558-9.784c-19.425-33.389-18.62-32.985-22.361-35.878
		c-7.947-6.15-20.177-4.587-25.942,4.761l-4.271,6.921c-1.367,2.212-4.743,1.475-5.076-1.093c-0.129-0.994-0.328,0.807,9.318-36.444
		c0.565-2.181,2.064-1.747,20.23-11.436c17.923-9.187,8.893-36.937-12.873-40.663c-10.295-2.083-14.799-1.594-20.862-5.278
		l-27.339-16.593c-11.057-6.716-11.154-17.752-13.294-22.982c13.101-14.677,28.449-26.969,45.672-36.57
		c3.618-2.017,4.916-6.585,2.898-10.203c-2.017-3.618-6.586-4.916-10.202-2.899c-19.958,11.126-37.595,25.581-52.421,42.963
		c-0.031,0.038-0.06,0.079-0.091,0.117c-29.304,34.407-45.44,78.27-45.44,123.531c0,40.813,12.896,78.667,34.821,109.713
		L44.687,356.17c-12.739,12.739-12.743,33.362,0,46.104C57.425,415.015,78.049,415.018,90.791,402.275L90.791,402.275z
		 M362.83,59.24l39.101-39.1c6.863-6.862,18.028-6.862,24.891,0c6.862,6.863,6.862,18.028,0,24.891l-39.104,39.104
		c-0.227-0.272-0.446-0.548-0.673-0.819c-7.073-8.417-15.351-16.695-24.124-23.999C362.889,59.29,362.861,59.264,362.83,59.24z
		 M403.111,273.727c-36.837-27.779-22.939-19.235-42.692-29.774c-13.925-7.422-25.217,1.072-33.477-7.317
		c-6.434-6.536-16.041-9.814-25.616-7.962c-1.511,0.291-0.681,0.137-20.578,5.295c-0.969,0.25-1.983,0.059-2.782-0.519
		c-13.546-10.104-14.803-9.826-14.827-12.409c-0.021-1.991,0.124-0.903,16.188-22.732c11.67-15.506,5.593-29.434,16.237-41.055
		c10.267-11.186,23.62-7.728,25.462-7.909c9.963,0.709,19.447-4.515,24.165-13.309l6.816-12.703
		c1.671-3.115,4.774-5.144,8.304-5.426c8.41-0.675,15.978-5.515,20.085-12.855l1.946-3.459
		c21.799,29.468,34.348,66.023,34.348,104.312C416.689,229.428,412.074,252.438,403.111,273.727z M342.772,475.207v2.724
		c0,10.515-8.554,19.069-19.069,19.069H158.405c-10.515,0-19.068-8.554-19.068-19.069v-2.724c0-21.579,15.787-39.527,36.973-42.376
		c20.176,5.714,41.996,8.893,64.749,8.893c21.94,0,43.787-3.032,64.581-8.918C326.906,435.586,342.772,453.575,342.772,475.207
		L342.772,475.207z M98.547,103.232c5.962,18.719,16.756,20.619,44.302,38.13c8.272,5.025,14.92,5.316,26.119,7.242
		c5.032,0.86,8.895,4.642,9.978,9.52c0.196,0.872-0.063,1.886-0.808,2.577c-0.52,0.484,0.247-0.052-19.468,10.137
		c-3.366,1.734-6.063,4.488-7.734,7.809c-1.469,2.922-0.703,1.661-10.563,38.898c-5.15,19.826,21.725,30.875,32.286,13.792
		l4.273-6.927c1.093-1.772,3.665-1.75,4.712,0.062l17.854,30.711c2.185,3.767,5.669,6.592,9.812,7.954l26.038,8.547
		c2.916,0.959,5.155,3.176,6.144,6.084c2.11,6.211-2.564,10.066-3.572,12.099c-4.926,7.22-5.605,16.147-2.274,23.745
		c2.326,5.306,4.932,7.187,13.627,16.606c3.78,4.031,2.274,8.511,2.618,12.466c0,3.08-1.478,6.047-4.077,7.892
		c-7.404,5.282-11.466,14.397-10.093,23.715c0.568,3.851,1.856,6.304,2.195,7.239c-97.45-0.67-174.497-80.219-174.497-175.627
		C65.419,168.943,77.095,132.997,98.547,103.232z M55.293,366.777l39.096-39.096c7.515,9.041,15.848,17.375,24.891,24.889
		l-39.096,39.097c-6.878,6.878-18.012,6.879-24.891,0C48.415,384.79,48.414,373.656,55.293,366.777z"/>
</g>
</svg>
